<svg width="18" height="17" viewBox="0 0 18 17" fill="none" xmlns="http://www.w3.org/2000/svg">
<path fill-rule="evenodd" clip-rule="evenodd" d="M16.1427 16.4166H11.3808C10.6665 16.4166 10.1903 15.9642 10.1903 15.2856V10.7618C10.1903 10.0833 10.6665 9.63087 11.3808 9.63087H16.1427C16.857 9.63087 17.3332 10.0833 17.3332 10.7618V15.2856C17.3332 15.9642 16.857 16.4166 16.1427 16.4166ZM16.1427 11.3273C16.1427 10.988 15.9046 10.7618 15.5475 10.7618H11.976C11.6189 10.7618 11.3808 10.988 11.3808 11.3273V14.7202C11.3808 15.0594 11.6189 15.2856 11.976 15.2856H15.5475C15.9046 15.2856 16.1427 15.0594 16.1427 14.7202V11.3273ZM16.1427 7.36897H11.3808C10.6665 7.36897 10.1903 6.91658 10.1903 6.23801V1.7142C10.1903 1.03563 10.6665 0.583252 11.3808 0.583252H16.1427C16.857 0.583252 17.3332 1.03563 17.3332 1.7142V6.23801C17.3332 6.91658 16.857 7.36897 16.1427 7.36897ZM16.1427 2.27968C16.1427 1.94039 15.9046 1.7142 15.5475 1.7142H11.976C11.6189 1.7142 11.3808 1.94039 11.3808 2.27968V5.67254C11.3808 6.01182 11.6189 6.23801 11.976 6.23801H15.5475C15.9046 6.23801 16.1427 6.01182 16.1427 5.67254V2.27968ZM6.61889 16.4166H1.85698C1.14269 16.4166 0.666504 15.9642 0.666504 15.2856V10.7618C0.666504 10.0833 1.14269 9.63087 1.85698 9.63087H6.61889C7.33317 9.63087 7.80936 10.0833 7.80936 10.7618V15.2856C7.80936 15.9642 7.33317 16.4166 6.61889 16.4166ZM6.61889 11.3273C6.61889 10.988 6.38079 10.7618 6.02365 10.7618H2.45222C2.09508 10.7618 1.85698 10.988 1.85698 11.3273V14.7202C1.85698 15.0594 2.09508 15.2856 2.45222 15.2856H6.02365C6.38079 15.2856 6.61889 15.0594 6.61889 14.7202V11.3273ZM6.61889 7.36897H1.85698C1.14269 7.36897 0.666504 6.91658 0.666504 6.23801V1.7142C0.666504 1.03563 1.14269 0.583252 1.85698 0.583252H6.61889C7.33317 0.583252 7.80936 1.03563 7.80936 1.7142V6.23801C7.80936 6.91658 7.33317 7.36897 6.61889 7.36897ZM6.61889 2.27968C6.61889 1.94039 6.38079 1.7142 6.02365 1.7142H2.45222C2.09508 1.7142 1.85698 1.94039 1.85698 2.27968V5.67254C1.85698 6.01182 2.09508 6.23801 2.45222 6.23801H6.02365C6.38079 6.23801 6.61889 6.01182 6.61889 5.67254V2.27968Z" fill="#23263B"/>
</svg>
