<svg width="16" height="15" viewBox="0 0 16 15" fill="none" xmlns="http://www.w3.org/2000/svg">
<path d="M13.625 0H11.75C11.75 0 10.0719 4.31069e-06 8 4.31069e-06C5.92812 4.31069e-06 4.25 0 4.25 0H2.375C1.34375 0 0.5 0.843749 0.5 1.875V13.125C0.5 14.1562 1.34375 15 2.375 15H13.625C14.6562 15 15.5 14.1562 15.5 13.125V1.875C15.5 0.843749 14.6562 0 13.625 0ZM13.625 13.125H2.375V1.875H4.25C4.25 1.875 4.67748 1.875 5.19311 1.875C5.70873 1.875 6.125 1.875 6.125 1.875H9.875C9.875 1.875 10.2529 1.875 10.7685 1.875C11.2841 1.875 11.6573 1.875 11.75 1.875H13.625V13.125Z" fill="#23263B"/>
</svg>
