<svg width="16" height="18" viewBox="0 0 16 18" fill="none" xmlns="http://www.w3.org/2000/svg">
<path d="M1.29855 0L9.60084 7.93033L11.7432 5.88355C8.81576 4.18665 4.89488 1.91028 3.13153 0.886788L1.95017 0.203036C1.74135 0.0815009 1.51777 0.0160518 1.29855 0ZM0.0312527 0.94949C0.0144513 1.03663 0 1.1242 0 1.21821V16.8908C0 16.9565 0.0138387 17.0177 0.0234396 17.0804L8.46949 9.0112L0.0312527 0.94949ZM13.1512 6.70017L10.7322 9.0112L13.109 11.2819C14.3683 10.5527 15.2405 10.0463 15.3373 9.99055C15.7653 9.7406 16.007 9.36348 15.9998 8.95148C15.9934 8.54713 15.7516 8.18561 15.3404 7.96317C15.2484 7.91273 14.3881 7.41639 13.1512 6.70017ZM9.60084 10.0921L1.32355 18C1.48437 17.9732 1.64498 17.9274 1.7986 17.8388C2.01141 17.7149 7.76068 14.3825 11.701 12.0985L9.60084 10.0921Z" fill="white"/>
</svg>
