<svg width="29" height="28" viewBox="0 0 29 28" fill="none" xmlns="http://www.w3.org/2000/svg">
<g opacity="0.8" clip-path="url(#clip0_603_10217)">
<path d="M19.8356 0H9.33898C4.50878 0 0.591797 3.91825 0.591797 8.75V19.25C0.591797 24.0817 4.50878 28 9.33898 28H19.8356C24.6658 28 28.5828 24.0817 28.5828 19.25V8.75C28.5828 3.91825 24.6658 0 19.8356 0ZM25.9586 19.25C25.9586 22.6275 23.212 25.375 19.8356 25.375H9.33898C5.96256 25.375 3.21595 22.6275 3.21595 19.25V8.75C3.21595 5.3725 5.96256 2.625 9.33898 2.625H19.8356C23.212 2.625 25.9586 5.3725 25.9586 8.75V19.25Z" fill="#2A2A2A"/>
<path d="M14.5876 7C10.7231 7 7.58984 10.1342 7.58984 14C7.58984 17.8658 10.7231 21 14.5876 21C18.4521 21 21.5853 17.8658 21.5853 14C21.5853 10.1342 18.4521 7 14.5876 7ZM14.5876 18.375C12.1769 18.375 10.214 16.4115 10.214 14C10.214 11.5868 12.1769 9.625 14.5876 9.625C16.9983 9.625 18.9612 11.5868 18.9612 14C18.9612 16.4115 16.9983 18.375 14.5876 18.375Z" fill="#2A2A2A"/>
<path d="M22.1105 7.40749C22.6256 7.40749 23.0432 6.98989 23.0432 6.47474C23.0432 5.9596 22.6256 5.54199 22.1105 5.54199C21.5953 5.54199 21.1777 5.9596 21.1777 6.47474C21.1777 6.98989 21.5953 7.40749 22.1105 7.40749Z" fill="#2A2A2A"/>
</g>
<defs>
<clipPath id="clip0_603_10217">
<rect width="27.991" height="28" fill="white" transform="translate(0.591797)"/>
</clipPath>
</defs>
</svg>
