<svg width="29" height="24" viewBox="0 0 29 24" fill="none" xmlns="http://www.w3.org/2000/svg">
<path d="M28.5466 3.31825C27.5057 3.775 26.3966 4.07775 25.2402 4.22475C26.4298 3.51425 27.3378 2.39775 27.7646 1.052C26.6555 1.7135 25.4309 2.18075 24.1258 2.4415C23.0727 1.31975 21.5716 0.625 19.9342 0.625C16.7572 0.625 14.1995 3.2045 14.1995 6.36675C14.1995 6.82175 14.238 7.25925 14.3325 7.67575C9.56176 7.443 5.34037 5.15575 2.50454 1.6715C2.00945 2.53075 1.71904 3.51425 1.71904 4.573C1.71904 6.561 2.74246 8.32325 4.26797 9.3435C3.34601 9.326 2.44156 9.05825 1.6753 8.6365C1.6753 8.654 1.6753 8.67675 1.6753 8.6995C1.6753 11.489 3.66441 13.806 6.27282 14.3398C5.80572 14.4675 5.29664 14.5287 4.76831 14.5287C4.40092 14.5287 4.03004 14.5077 3.68191 14.4307C4.42542 16.704 6.53524 18.3752 9.04393 18.4295C7.09156 19.9573 4.61261 20.8778 1.92897 20.8778C1.45837 20.8778 1.00702 20.8568 0.555664 20.799C3.09759 22.4387 6.11012 23.375 9.35882 23.375C19.9184 23.375 25.6916 14.625 25.6916 7.0405C25.6916 6.78675 25.6828 6.54175 25.6706 6.2985C26.8094 5.49 27.7664 4.48025 28.5466 3.31825Z" fill="#2A2A2A"/>
</svg>
