<svg width="16" height="16" viewBox="0 0 16 16" fill="none" xmlns="http://www.w3.org/2000/svg">
<path d="M11.1959 1.71437C10.2295 1.71437 9.38287 2.14236 8.74763 2.95207L7.97714 3.93416L7.16296 2.98907C6.434 2.1429 5.62893 1.73154 4.70184 1.73146C4.34581 1.73146 3.96851 1.79533 3.5808 1.92118C3.06352 2.08929 2.56027 2.4569 2.16375 2.95629C1.71817 3.51745 1.4298 4.21357 1.32979 4.96941C1.16028 6.25054 1.53525 7.67521 2.41419 9.08942C3.50144 10.8389 5.33441 12.5732 7.86262 14.2445C7.904 14.2719 7.95016 14.2858 7.9998 14.2858C8.04941 14.2858 8.09555 14.2719 8.13752 14.2441C10.6652 12.5731 12.4981 10.8388 13.5853 9.08937C14.4641 7.67512 14.8391 6.25044 14.6697 4.96941C14.5697 4.21352 14.2814 3.51738 13.836 2.95622C13.4396 2.45685 12.9366 2.08926 12.4204 1.92141C11.9969 1.78402 11.5849 1.71437 11.1959 1.71437ZM11.1959 0.666748C11.6919 0.666748 12.2095 0.753129 12.7347 0.923535C13.4416 1.1534 14.1182 1.64191 14.6398 2.29902C15.2036 3.00929 15.5677 3.88445 15.6928 4.82998C15.8948 6.35751 15.468 8.02361 14.4584 9.64822C13.2913 11.5263 11.3542 13.368 8.70092 15.1219C8.49183 15.2604 8.24938 15.3334 7.9998 15.3334C7.75022 15.3334 7.50777 15.2604 7.29879 15.1221C4.64537 13.368 2.70821 11.5263 1.54109 9.6483C0.531412 8.02373 0.104605 6.35751 0.30672 4.82998C0.431824 3.88445 0.796025 3.0092 1.35999 2.29895C1.88172 1.64186 2.55848 1.1534 3.26599 0.923468C3.75571 0.764513 4.23878 0.683844 4.70184 0.683844C5.92878 0.68394 7.01605 1.22691 7.94008 2.29952C8.7696 1.24218 9.90831 0.666748 11.1959 0.666748Z" fill="#53900F"/>
</svg>
