<svg width="22" height="22" viewBox="0 0 22 22" fill="none" xmlns="http://www.w3.org/2000/svg">
<path d="M20.8918 8.13311L20.8917 8.13309L14.5409 7.55653L14.2436 7.52954L14.1263 7.25498L11.6168 1.37972C11.6167 1.37954 11.6167 1.37935 11.6166 1.37916C11.5097 1.13084 11.2685 0.972168 11 0.972168C10.731 0.972168 10.4902 1.13124 10.3847 1.37867L10.3846 1.37891L7.87474 7.25498L7.75747 7.52954L7.46013 7.55653L1.10912 8.13302C1.10897 8.13304 1.10883 8.13305 1.10868 8.13307C0.842707 8.15779 0.616856 8.33775 0.532896 8.59331C0.450011 8.84897 0.526956 9.12853 0.728339 9.30515L5.52897 13.5146L5.75283 13.7109L5.68691 14.0013L4.27155 20.235C4.21185 20.4992 4.31434 20.77 4.53146 20.9269L4.53246 20.9277C4.64931 21.0126 4.78607 21.0549 4.92421 21.0549C5.04258 21.0549 5.1609 21.0235 5.26704 20.96L5.26718 20.9599L10.7434 17.6855L11.0001 17.5321L11.2567 17.6855L16.7318 20.9599C16.9619 21.0974 17.2507 21.0848 17.4682 20.9272L17.4686 20.9269C17.6856 20.7701 17.7881 20.4996 17.7286 20.2355L20.8918 8.13311ZM20.8918 8.13311C21.1577 8.15716 21.3837 8.33703 21.4669 8.59243L20.8918 8.13311ZM16.3131 14.0013L17.7285 20.235L21.467 8.59275C21.5502 8.84957 21.4731 9.12846 21.2716 9.30522L16.4711 13.5146L16.2472 13.7109L16.3131 14.0013Z" fill="white" stroke="#A600A6"/>
</svg>
