<svg width="22" height="22" viewBox="0 0 22 22" fill="none" xmlns="http://www.w3.org/2000/svg">
<path d="M21.9425 8.43813C21.7976 7.99266 21.4025 7.67727 20.9369 7.63514L14.5861 7.05858L12.0763 1.18251C11.891 0.750798 11.4693 0.472168 11 0.472168C10.5307 0.472168 10.1089 0.750798 9.92478 1.18251L7.41493 7.05858L1.06317 7.63514C0.597557 7.67811 0.203279 7.9935 0.0575857 8.43813C-0.0872684 8.8836 0.0465076 9.37221 0.398656 9.68106L5.19932 13.8906L3.78384 20.1248C3.68028 20.5832 3.8582 21.0572 4.23855 21.3322C4.44299 21.4807 4.68318 21.5549 4.92421 21.5549C5.13134 21.5549 5.33863 21.4998 5.52377 21.3891L11 18.1146L16.4753 21.3891C16.8769 21.6291 17.382 21.6071 17.7615 21.3322C18.1419 21.0572 18.3198 20.5832 18.2162 20.1248L16.8007 13.8906L21.6014 9.68106C21.9534 9.37221 22.0873 8.88461 21.9425 8.43813Z" fill="#A600A6"/>
</svg>
