<svg width="28" height="28" viewBox="0 0 28 28" fill="none" xmlns="http://www.w3.org/2000/svg">
<path d="M25.662 27.0796L23.613 6.81392C23.57 6.38966 23.2257 6.06752 22.8149 6.06752H18.9637V5.15557C18.9637 2.31289 16.7368 0 13.9998 0C11.2625 0 9.03562 2.31289 9.03562 5.15557V6.06752H5.18442C4.77367 6.06752 4.42936 6.38966 4.38637 6.81392L2.33736 27.0796C2.31371 27.3144 2.38714 27.5488 2.53914 27.7244C2.69134 27.8997 2.90813 27.9999 3.13541 27.9999H24.8637C25.0912 27.9999 25.308 27.8997 25.46 27.7244C25.6124 27.5488 25.6856 27.3144 25.662 27.0796ZM10.6404 5.15557C10.6404 3.2319 12.1474 1.66668 13.9998 1.66668C15.8519 1.66668 17.359 3.2319 17.359 5.15557V6.06752H10.6404V5.15557ZM4.02643 26.3332L5.90699 7.7342H9.03562V9.57072C9.03562 10.0309 9.39495 10.4041 9.83799 10.4041C10.281 10.4041 10.6404 10.0309 10.6404 9.57072V7.7342H17.359V9.57072C17.359 10.0309 17.7183 10.4041 18.1613 10.4041C18.6044 10.4041 18.9637 10.0309 18.9637 9.57072V7.7342H22.0924L23.9729 26.3332H4.02643Z" fill="white"/>
</svg>
