<svg width="254" height="62" viewBox="0 0 254 62" fill="none" xmlns="http://www.w3.org/2000/svg">
<path d="M82.826 30.3725H89.8828L87.1174 43.9887C83.7321 46.5416 79.1546 48.0075 74.3392 48.0075C64.2309 48.0075 57.8418 42.1924 57.8418 33.6347C57.8418 22.335 66.1861 13.7778 78.8213 13.7778C85.2104 13.7778 89.8833 15.8106 92.7441 19.5456L87.2133 23.99C84.9725 21.3425 82.2072 20.3022 78.4881 20.3022C70.6683 20.3022 65.6621 25.8809 65.6621 33.1619C65.6621 38.1258 68.9998 41.4831 75.3412 41.4831C77.2959 41.4831 79.108 41.1048 80.8719 40.301L82.8266 30.3725H82.826Z" fill="#00AA00"/>
<path d="M114.2 21.6261L112.865 28.4342C112.197 28.3869 111.768 28.3396 111.148 28.3396C106.761 28.3396 103.948 30.3729 102.995 35.1477L100.515 47.4399H93.0771L98.1787 22.0038H105.235L104.615 25.0295C106.904 22.5712 110.051 21.6255 114.199 21.6255L114.2 21.6261Z" fill="#00AA00"/>
<path d="M113.676 36.4248C113.676 27.9617 120.16 21.6265 129.172 21.6265C137.04 21.6265 142.094 26.1181 142.094 33.0208C142.094 41.4839 135.657 47.8192 126.597 47.8192C118.777 47.8192 113.676 43.2802 113.676 36.4248ZM134.56 33.3518C134.56 29.9005 132.462 27.7258 128.743 27.7258C124.356 27.7258 121.209 31.1299 121.209 36.0944C121.209 39.5457 123.355 41.7203 127.074 41.7203C131.413 41.7203 134.56 38.3163 134.56 33.3518Z" fill="#00AA00"/>
<path d="M144.858 36.4248C144.858 27.9617 151.343 21.6265 160.498 21.6265C165.981 21.6265 170.082 23.9429 172.037 28.0563L165.743 31.1766C164.599 28.8129 162.644 27.7253 160.022 27.7253C155.635 27.7253 152.393 31.1293 152.393 36.0466C152.393 39.4979 154.538 41.7198 158.353 41.7198C160.927 41.7198 163.121 40.6795 164.646 38.3157L170.129 41.7198C167.65 45.5494 163.168 47.8186 157.923 47.8186C149.96 47.8186 144.859 43.2797 144.859 36.4243L144.858 36.4248Z" fill="#00AA00"/>
<path d="M199.644 36.708H179.999C180.238 40.1593 182.383 41.9089 186.627 41.9089C189.249 41.9089 191.729 41.0578 193.493 39.5452L196.592 44.4151C193.636 46.7789 189.774 47.8192 185.864 47.8192C177.853 47.8192 172.752 43.3275 172.752 36.4248C172.752 27.9144 178.95 21.6265 187.867 21.6265C195.353 21.6265 200.073 26.0235 200.073 32.8316C200.073 34.2029 199.882 35.5264 199.644 36.7086V36.708ZM180.523 32.4055H193.254C193.254 29.0487 190.966 27.1578 187.533 27.1578C184.1 27.1578 181.525 29.2379 180.523 32.4055Z" fill="#00AA00"/>
<path d="M223.293 21.6261L221.958 28.4342C221.29 28.3869 220.861 28.3396 220.241 28.3396C215.854 28.3396 213.041 30.3729 212.087 35.1477L209.608 47.4399H202.17L207.271 22.0038H214.328L213.708 25.0295C215.997 22.5712 219.144 21.6255 223.292 21.6255L223.293 21.6261Z" fill="#00AA00"/>
<path d="M254 22.0044L236.93 49.1422C233.163 55.1465 230.112 56.9901 225.201 56.9901C222.578 56.9901 219.718 56.1389 218.239 54.7682L221.672 49.4732C222.721 50.419 224.152 51.0331 225.773 51.0331C227.728 51.0331 228.967 50.1347 230.398 47.9128L230.637 47.4872L224.724 22.0044H232.163L235.977 39.3084L246.658 22.0044H254H254Z" fill="#00AA00"/>
<path d="M42.5243 45.354C42.4943 45.3854 42.4761 45.4045 42.4761 45.4045C36.6629 47.6331 30.9404 47.9969 26.1226 47.5394L25.4617 47.4811L25.9554 47.5882C27.5931 48.1124 24.1103 51.2325 24.1103 51.2325C24.1103 51.2325 32.4914 47.9291 32.9947 49.0173C33.8297 50.8204 27.079 52.5921 27.1799 53.0434C27.2808 53.4953 35.3212 50.4548 35.9759 52.2529C36.6295 54.0503 27.5636 55.027 27.4706 55.4878C27.3771 55.9487 34.9578 54.9844 35.1029 56.4225C35.248 57.8611 27.173 57.4877 27.0342 58.0046C26.8953 58.5215 32.0498 58.1482 32.1223 59.2986C32.1949 60.4491 16.2037 62.1748 3.84658 51.7505C3.84658 51.7505 3.83808 51.732 3.83184 51.7191C2.25709 56.8805 0.000976562 61.9999 0.000976562 61.9999H47.7825C47.7825 61.9999 43.1257 51.4326 42.5243 45.3557V45.354Z" fill="#F15A24"/>
<path d="M42.5245 45.354C42.4945 45.3854 42.4763 45.4045 42.4763 45.4045C36.6631 47.6331 30.9406 47.9969 26.1228 47.5394L25.4619 47.4811L25.9556 47.5882C27.5933 48.1124 24.1105 51.2325 24.1105 51.2325C24.1105 51.2325 32.4916 47.9291 32.9949 49.0173C33.8299 50.8204 27.0792 52.5921 27.1801 53.0434C27.281 53.4953 35.3214 50.4548 35.9761 52.2529C36.6297 54.0503 27.5638 55.027 27.4708 55.4878C27.3773 55.9487 34.958 54.9844 35.1031 56.4224C35.2482 57.8611 27.1732 57.4877 27.0344 58.0046C26.8955 58.5215 32.05 58.1481 32.1225 59.2986C32.1951 60.4491 16.2039 62.1748 3.84677 51.7505C3.84677 51.7505 3.83827 51.732 3.83203 51.7191C5.63069 56.6086 17.7848 62.944 29.2004 61.0546C41.8953 58.9532 43.1798 48.9299 42.5245 45.3551V45.354Z" fill="#F12C00"/>
<path d="M23.7572 23.8154C23.7572 23.8154 8.00685 23.784 0.257812 29.5408C0.257812 29.5408 4.24797 34.6355 5.27909 43.297C5.29893 43.4647 5.31254 43.6401 5.31935 43.8229C7.88384 47.3091 13.5207 53.4381 20.0317 50.8916C22.8542 49.522 23.8433 47.6589 25.1919 47.4845L25.4011 47.4683L25.1585 47.4352C17.9457 46.5679 12.9987 43.9255 13.2651 43.2993C13.7174 42.2368 18.4598 44.2709 18.5012 43.7388C18.5426 43.2045 10.7953 40.9221 11.412 39.6113C12.0293 38.301 18.8623 41.6857 18.9275 41.2204C18.9938 40.755 10.7629 36.8742 11.9794 35.3901C13.1971 33.9077 19.7727 39.4005 20.0181 39.008C20.2642 38.6144 14.4833 34.7392 15.8721 33.3095C16.711 32.4467 23.5197 38.3005 23.5197 38.3005C23.5197 38.3005 21.2805 34.1965 23.0015 34.2357C24.9136 34.28 24.8852 36.7037 27.4832 39.3113C32.789 43.8476 40.1662 39.8837 43.7431 37.4309C45.2991 32.3839 47.5241 29.5408 47.5241 29.5408C43.8502 26.4471 36.841 24.9361 31.3804 24.2723C27.1997 23.7644 23.7566 23.8154 23.756 23.8154H23.7572Z" fill="#007BFF"/>
<path d="M47.5253 29.5408C43.8514 26.4471 36.8421 24.9361 31.3815 24.2723C27.2009 23.7644 23.7578 23.8154 23.7578 23.8154C23.7578 23.8154 8.00685 23.784 0.257812 29.5408C0.257812 29.5408 7.95414 25.0617 23.8915 25.0617C39.8289 25.0617 47.5258 29.5408 47.5258 29.5408H47.5253Z" fill="#00BDFF"/>
<path d="M5.27819 43.2974C5.29803 43.465 5.31164 43.6405 5.31844 43.8233C7.88293 47.3094 13.5198 53.4385 20.0308 50.892C22.8532 49.5224 23.8424 47.6593 25.191 47.4849L25.4002 47.4687L25.1575 47.4356C17.9448 46.5683 12.9977 43.9259 13.2642 43.2996C13.7165 42.2372 18.4589 44.2713 18.5003 43.7392C18.5417 43.2049 10.7943 40.9225 11.4111 39.6117C12.0284 38.3014 18.8614 41.6861 18.9266 41.2207C18.9929 40.7554 10.762 36.8745 11.9785 35.3905C13.1962 33.9081 19.7718 39.4009 20.0172 39.0084C20.2632 38.6148 14.4824 34.7396 15.8712 33.3099C16.7101 32.4471 23.5187 38.3008 23.5187 38.3008C23.5187 38.3008 21.2796 34.1969 23.0006 34.2361C24.9127 34.2804 24.8843 36.7041 27.4823 39.3117C32.7881 43.848 40.1653 39.8841 43.7422 37.4313C43.7422 37.4313 37.8185 29.1667 22.3521 30.1921C9.18388 31.0645 4.81733 39.4362 5.27649 43.2974H5.27819Z" fill="#0045FF"/>
<path d="M2.32244 27.5472C2.32244 27.5472 7.7173 24.5936 17.6527 23.5777L16.3779 16.9513C16.3779 16.9513 8.21784 16.6918 0 21.9092L2.32188 27.5472H2.32244Z" fill="#00AA00"/>
<path d="M18.187 23.5299C18.187 23.5299 17.1553 18.2474 16.9365 16.9534C17.0731 13.1207 19.9953 10.8047 19.9953 10.8047C19.9953 10.8047 23.608 13.0708 23.608 17.0487V23.2916C23.608 23.2916 20.3485 23.3477 18.1876 23.5304L18.187 23.5299Z" fill="#007BFF"/>
<path d="M19.3953 10.8086C19.3953 10.8086 18.3919 11.4427 17.4878 13.2301C16.5836 15.0174 16.468 16.3602 16.468 16.3602C16.468 16.3602 8.19346 16.3344 0 21.4319C0.247153 17.3071 2.39784 15.3022 2.39784 15.3022C2.39784 15.3022 8.14584 10.4744 19.3953 10.808V10.8086Z" fill="#F15A24"/>
<path d="M19.3953 10.8081C19.3953 10.8081 18.3919 11.4422 17.4878 13.2296C16.5836 15.0169 16.468 16.3597 16.468 16.3597C16.468 16.3597 8.19346 16.3339 0 21.4314C4.1931 15.6533 11.4495 11.778 19.3953 10.8081Z" fill="#F12C00"/>
<path d="M20.0429 10.3795C20.0429 10.3795 9.91241 9.41521 2.58229 14.5721C2.32776 13.3443 3.05618 12.6149 3.05618 12.6149C3.05618 12.6149 8.59559 8.02928 19.2487 8.70038C20.1273 8.79569 20.0434 10.3795 20.0434 10.3795H20.0429Z" fill="#007BFF"/>
<path d="M3.05566 12.6149C3.05566 12.6149 8.59507 8.02928 19.2482 8.70038C19.4488 8.72225 19.8065 8.82485 19.9545 9.49091C16.9892 9.22964 13.6096 9.45109 10.3178 10.111C5.70406 11.0355 3.05566 12.6149 3.05566 12.6143V12.6149Z" fill="#00BDFF"/>
<path d="M32.935 4.90686C32.935 4.90686 32.8454 6.62134 33.3908 8.9789C33.935 11.337 37.5011 13.546 37.5969 15.8979C37.7046 18.588 37.6973 18.6429 37.8203 24.8123C30.6681 23.1046 24.1191 23.321 24.1191 23.321C24.1191 23.321 24.1367 18.3794 24.2121 16.0269C24.2875 13.6738 27.8344 11.4357 28.3593 9.07364C28.8842 6.71105 28.781 4.99769 28.781 4.99769C28.781 4.99769 28.9579 4.29463 30.8127 4.2537C32.6663 4.21277 32.9361 4.90574 32.9361 4.90574L32.935 4.90686Z" fill="#00AA00"/>
<path d="M37.7023 19.0333C37.8101 21.7234 37.6973 18.6426 37.8203 24.812C30.6681 23.1043 24.1191 23.3207 24.1191 23.3207C24.1191 23.3207 24.1265 21.9011 24.1481 19.4953C27.0328 18.3045 33.1175 17.4422 37.7029 19.0328L37.7023 19.0333Z" fill="#008B00"/>
<path d="M28.3037 4.5156C28.3037 4.5156 29.1041 3.67237 30.9827 3.67854C32.8624 3.68471 33.5421 4.65408 33.5421 4.65408C33.5421 4.65408 33.448 2.24158 33.3687 1.22736C33.2332 -0.516838 28.5004 -0.316686 28.4245 1.28847C28.3723 2.38455 28.3043 4.5156 28.3043 4.5156H28.3037Z" fill="#007BFF"/>
<path d="M33.368 1.22736C33.2325 -0.516838 28.4998 -0.316686 28.4238 1.28847C29.5967 0.273122 32.2938 0.297232 33.368 1.22736Z" fill="#00BDFF"/>
<path d="M43.0824 10.157C38.6518 8.63317 35.75 11.7538 35.75 11.7538C35.75 11.7538 36.2143 12.3127 36.7346 12.9911C36.7409 12.9911 36.7471 12.9895 36.7533 12.99C41.672 13.8108 45.8232 15.5034 45.8646 15.5208C46.0023 15.5774 46.0681 15.7333 46.0108 15.8695C45.9672 15.9721 45.8668 16.0344 45.7614 16.0344C45.7268 16.0344 45.6917 16.0276 45.6571 16.0136C45.6185 15.9979 41.8171 14.4516 37.2017 13.6129C37.9591 14.6423 38.0583 14.9803 38.1422 16.9998C42.2803 17.7685 45.4865 19.197 45.5193 19.211C45.6543 19.2722 45.7138 19.4303 45.6531 19.5648C45.6072 19.6635 45.5091 19.7212 45.4071 19.7212C45.3691 19.7212 45.3323 19.7134 45.2954 19.6977C45.2637 19.6837 42.1748 18.3095 38.1631 17.5481C38.1972 18.5299 38.2221 19.7459 38.2397 20.9115C42.3234 21.6819 45.139 22.9618 45.1673 22.9747C45.3022 23.037 45.3606 23.1956 45.2983 23.3291C45.2529 23.4266 45.1548 23.4838 45.0534 23.4838C45.0148 23.4838 44.9763 23.4754 44.94 23.4591C44.9128 23.4468 42.2015 22.2162 38.2476 21.457C38.2737 23.3285 38.2805 24.9224 38.2805 24.9224C38.2805 24.9224 42.5898 25.9518 45.745 27.6069C45.745 27.6069 50.4737 12.6996 43.0829 10.1576L43.0824 10.157Z" fill="#F15A24"/>
<path d="M27.5693 9.92718C24.4668 8.34333 20.7952 9.83299 20.4619 10.4447C23.7197 13.2541 23.8603 15.3824 23.8603 15.3824C23.8603 15.3824 24.0904 14.2868 25.2961 12.888C27.304 10.559 27.5693 9.92774 27.5693 9.92774V9.92718Z" fill="#F15A24"/>
<path d="M22.2305 12.2319C23.7757 14.109 23.8602 15.3817 23.8602 15.3817C23.8602 15.3817 24.0904 14.2861 25.2961 12.8873C25.5648 12.5756 25.9553 12.1086 26.1651 11.8551C25.0569 11.3343 23.0502 11.4453 22.2305 12.2319Z" fill="#F12C00"/>
<path d="M22.0171 9.20466C22.0171 9.20466 18.0456 8.02615 18.6935 6.75851C19.825 4.5428 22.1854 7.58044 22.1854 7.58044C22.1854 7.58044 19.3658 1.53098 22.932 1.51808C25.87 1.50743 24.6297 7.4257 24.6297 7.4257C24.6297 7.4257 25.8099 3.93618 27.4437 5.29465C28.5762 6.23655 25.5055 8.88789 25.5055 8.88789C24.0515 8.72362 23.1003 8.86658 22.0165 9.20466H22.0171Z" fill="#00AA00"/>
<path d="M27.3306 6.83912C27.7036 6.23586 27.8691 5.64324 27.4451 5.29003C26.7303 4.69573 26.1022 5.02932 25.6221 5.59278C25.6221 5.59278 26.13 5.15659 26.8884 5.57372C27.6475 5.99085 27.3312 6.83912 27.3312 6.83912H27.3306Z" fill="#00D700"/>
<path d="M24.8833 4.46385C24.8261 2.9854 24.4015 1.50864 22.9327 1.51368C20.96 1.52041 20.9413 3.37394 21.3183 5.02956C21.3183 5.02956 21.0592 2.58229 22.6969 2.3272C24.3346 2.0721 24.8833 4.46385 24.8833 4.46385Z" fill="#00D700"/>
<path d="M21.0149 6.43862C20.2559 5.88693 19.3002 5.56961 18.6947 6.75427C18.4487 7.23475 18.8665 7.70234 19.4799 8.0976C19.4799 8.0976 18.8518 7.38388 19.3954 6.69315C19.9396 6.00243 21.0149 6.43862 21.0149 6.43862Z" fill="#00D700"/>
<path d="M38.2813 24.9043C38.2813 24.9043 42.4778 25.9337 45.7458 27.5887C45.8598 27.1486 45.9907 26.8559 46.1211 26.2437C46.2033 25.2783 45.79 24.1485 45.2997 23.3109C45.2997 23.3109 45.2521 23.5632 44.709 23.3401C41.0499 21.884 38.249 21.4395 38.249 21.4395L38.2819 24.9043H38.2813Z" fill="#F12C00"/>
<path d="M45.168 22.9839C45.168 22.9839 41.7095 21.5262 38.2403 20.9207C38.2154 19.5045 38.208 19.1558 38.208 19.1558C38.208 19.1558 42.0122 20.1285 45.168 22.9839Z" fill="#F12C00"/>
<path d="M45.5197 19.22C45.5197 19.22 42.526 17.8633 38.1425 17.0088C38.0654 15.7591 38.0059 15.314 38.0059 15.314C38.0059 15.314 42.0119 15.8746 45.5191 19.22H45.5197Z" fill="#F12C00"/>
<path d="M35.75 11.7631L36.7346 13.0004C36.7346 13.0004 40.7582 13.5718 45.864 15.5301C42.532 12.0227 38.2793 11.1895 35.75 11.7631Z" fill="#F12C00"/>
<path d="M28.7799 5.0069C28.7799 5.0069 28.9613 4.2388 30.9226 4.26122C32.7757 4.29542 32.9344 4.91495 32.9344 4.91495C32.9344 4.91495 32.9203 5.6068 32.9611 6.10803C32.1975 5.64156 30.2226 5.3702 28.7686 6.10803C28.7878 5.42739 28.7799 5.0069 28.7799 5.0069Z" fill="#008B00"/>
<path d="M23.6068 19.6553C23.6068 19.6553 20.0049 20.8825 18.0674 22.9205L18.1859 23.5305C18.1859 23.5305 21.8195 23.2676 23.6062 23.2917V19.6553H23.6068Z" fill="#0045FF"/>
<path d="M17.5782 23.1086C17.5782 23.1086 11.1012 19.3511 0.618164 23.3709C1.51948 25.5592 2.33803 27.5473 2.33803 27.5473C2.33803 27.5473 8.37967 24.3908 17.6683 23.5778L17.5782 23.1086Z" fill="#008B00"/>
<path d="M22.0178 9.21315C22.0178 9.21315 23.5234 8.61437 25.5068 8.89638C26.8996 7.45382 26.8458 6.97502 26.2857 6.7132C25.3946 6.29607 25.0091 8.29704 24.4309 8.30882C23.8533 8.32059 24.5483 5.2297 23.1589 5.36986C21.7695 5.51003 23.1424 8.32059 22.7813 8.48766C22.4197 8.65418 21.1165 6.7345 20.4617 7.28899C19.4811 8.11876 22.0178 9.21259 22.0178 9.21259V9.21315Z" fill="#008B00"/>
<path d="M28.3037 4.5248C28.3037 4.5248 29.2147 3.68774 30.9232 3.68774C32.6317 3.68774 33.5427 4.66272 33.5427 4.66272L33.4684 2.97459C33.4684 2.97459 32.9316 1.94971 30.9691 1.94971C29.0066 1.94971 28.3598 2.90282 28.3598 2.90282L28.3043 4.5248H28.3037Z" fill="#0045FF"/>
<path d="M37.1357 10.7157C37.1357 10.7157 39.3624 9.16716 42.4303 9.97226C45.3218 10.7303 46.2492 12.5115 46.892 14.9447C46.1704 12.3909 42.229 9.05615 37.1357 10.7157Z" fill="#FFB400"/>
<path d="M0.395508 19.0271C0.395508 19.0271 1.0355 16.5642 2.39711 15.3111C3.75929 14.058 8.22618 11.9915 12.1835 11.3428C9.43473 12.2813 5.4338 13.4923 2.91919 15.6262C1.2203 16.9577 0.395508 19.0271 0.395508 19.0271Z" fill="#FFB400"/>
<path d="M20.4619 10.4521C20.4619 10.4521 21.0033 9.53986 23.8761 9.25281C26.5574 9.02911 27.5693 9.93513 27.5693 9.93513L27.3646 10.271C27.3646 10.271 24.5139 8.89455 20.7278 10.6858C20.5628 10.5395 20.4619 10.4521 20.4619 10.4521Z" fill="#FFB400"/>
<path d="M23.6071 18.0756C23.6071 18.0756 23.6967 16.7894 23.4875 15.8201C23.3231 14.6617 22.5103 12.603 19.9945 10.814L19.6748 11.0999C19.6748 11.0999 23.4456 13.4681 23.6071 18.0761V18.0756Z" fill="#00BDFF"/>
<path d="M24.1919 18.8023C24.1919 18.8023 24.0666 15.8847 25.6216 14.0502C27.1765 12.2163 28.6781 10.9778 28.6781 7.18555C28.4287 9.35752 28.1038 10.1318 26.9616 11.5446C25.6788 13.1313 24.2463 14.5912 24.2118 16.0361C24.1772 17.4814 24.1914 18.8023 24.1914 18.8023H24.1919Z" fill="#00D700"/>
</svg>
