<svg width="17" height="22" viewBox="0 0 17 22" fill="none" xmlns="http://www.w3.org/2000/svg">
<path d="M8.87402 0.5C4.46336 0.5 0.874023 4.05775 0.874023 8.43187C0.874023 14.647 8.12202 21.0642 8.43047 21.3337C8.55758 21.4449 8.7158 21.5 8.87402 21.5C9.03225 21.5 9.19047 21.4449 9.31758 21.3346C9.62602 21.0643 16.874 14.647 16.874 8.43187C16.874 4.05775 13.2847 0.5 8.87402 0.5ZM8.87402 12.75C6.42336 12.75 4.42958 10.7874 4.42958 8.375C4.42958 5.96263 6.42336 4 8.87402 4C11.3247 4 13.3185 5.96263 13.3185 8.375C13.3185 10.7874 11.3247 12.75 8.87402 12.75Z" fill="white"/>
</svg>
