<svg width="20" height="20" viewBox="0 0 20 20" fill="none" xmlns="http://www.w3.org/2000/svg">
<path d="M8.80805 0C7.06598 0 5.36304 0.516551 3.91456 1.48433C2.46609 2.45211 1.33714 3.82766 0.670476 5.43702C0.00381638 7.04637 -0.170612 8.81727 0.169248 10.5258C0.509108 12.2342 1.34799 13.8036 2.57982 15.0353C3.81165 16.2671 5.38109 17.1059 7.08968 17.4458C8.79828 17.7856 10.5693 17.6112 12.1787 16.9446C13.7882 16.2779 15.1638 15.1491 16.1317 13.7007C17.0995 12.2523 17.6161 10.5495 17.6161 8.8075C17.6133 6.47245 16.6845 4.23382 15.0332 2.58268C13.382 0.931552 11.1432 0.00274106 8.80805 0V0ZM8.80805 15.9893C7.38764 15.9892 5.99915 15.568 4.81815 14.7788C3.63715 13.9897 2.71669 12.8681 2.17315 11.5559C1.62962 10.2437 1.48742 8.79977 1.76455 7.40674C2.04167 6.01371 2.72567 4.73414 3.73005 3.72982C4.73444 2.7255 6.01409 2.04154 7.4072 1.76443C8.80032 1.48733 10.2443 1.62951 11.5566 2.17301C12.8689 2.71651 13.9906 3.63692 14.7798 4.81785C15.5689 5.99877 15.9902 7.38718 15.9903 8.8075C15.9882 10.7116 15.2308 12.5371 13.8844 13.8835C12.5379 15.2299 10.7123 15.9872 8.80805 15.9893Z" fill="white"/>
<path d="M19.7624 18.6124L15.1007 13.951C14.9483 13.7985 14.7415 13.7129 14.5259 13.7129C14.3103 13.7129 14.1035 13.7985 13.951 13.951C13.7985 14.1034 13.7129 14.3102 13.7129 14.5258C13.7129 14.7414 13.7985 14.9482 13.951 15.1006L18.6127 19.762C18.7652 19.9144 18.972 20.0001 19.1876 20.0001C19.4032 20.0001 19.61 19.9144 19.7624 19.762C19.9149 19.6095 20.0006 19.4028 20.0006 19.1872C20.0006 18.9716 19.9149 18.7648 19.7624 18.6124Z" fill="white"/>
</svg>
