<svg width="17" height="17" viewBox="0 0 17 17" fill="none" xmlns="http://www.w3.org/2000/svg">
<path d="M16.441 5.97974L11.482 5.25904L9.2652 0.7649C9.20466 0.641853 9.10505 0.542244 8.982 0.481697C8.67341 0.329353 8.29841 0.456306 8.14411 0.7649L5.92731 5.25904L0.968329 5.97974C0.83161 5.99928 0.70661 6.06373 0.610907 6.16138C0.495207 6.2803 0.431451 6.44029 0.433649 6.60619C0.435846 6.7721 0.503817 6.93034 0.622626 7.04615L4.21052 10.5442L3.36286 15.4837C3.34298 15.5986 3.3557 15.7167 3.39956 15.8248C3.44343 15.9328 3.51669 16.0264 3.61104 16.0949C3.70539 16.1635 3.81705 16.2042 3.93337 16.2125C4.04968 16.2208 4.16599 16.1963 4.26911 16.1419L8.70466 13.8098L13.1402 16.1419C13.2613 16.2063 13.4019 16.2278 13.5367 16.2044C13.8765 16.1458 14.105 15.8235 14.0465 15.4837L13.1988 10.5442L16.7867 7.04615C16.8843 6.95045 16.9488 6.82545 16.9683 6.68873C17.0211 6.34693 16.7828 6.03053 16.441 5.97974Z" fill="#CFCFCF"/>
</svg>
