<svg width="192" height="43" viewBox="0 0 192 43" fill="none" xmlns="http://www.w3.org/2000/svg">
<path d="M41 34.8572V2.50098H46.3491V34.8572H41Z" fill="#244DAD"/>
<path d="M71.6464 22.5661V34.8574H66.5603V22.9414C66.5603 19.4231 64.5874 17.5463 62.3076 17.5463C59.9836 17.5463 57.0899 19.0005 57.0899 23.2228V34.8574H52.0039V12.949H57.0899V16.4204C58.1425 13.6523 61.3426 12.3857 63.4475 12.3857C68.7087 12.3857 71.6464 16.1859 71.6464 22.5661Z" fill="#244DAD"/>
<path d="M96.2054 22.5661V34.8574H91.1189V22.9414C91.1189 19.4231 89.1464 17.5463 86.8662 17.5463C84.543 17.5463 81.649 19.0005 81.649 23.2228V34.8574H76.5625V12.949H81.649V16.4204C82.7012 13.6523 85.9017 12.3857 88.0067 12.3857C93.2678 12.3857 96.2054 16.1859 96.2054 22.5661Z" fill="#244DAD"/>
<path d="M99.8438 23.8795C99.8438 16.9364 104.886 12.3857 110.717 12.3857C116.549 12.3857 121.634 16.9364 121.634 23.8795C121.634 30.8226 116.549 35.4202 110.717 35.4202C104.885 35.4202 99.8438 30.8226 99.8438 23.8795ZM116.505 23.8795C116.505 20.1263 113.874 17.4525 110.717 17.4525C107.56 17.4525 104.974 20.1264 104.974 23.8795C104.974 27.7261 107.56 30.3535 110.717 30.3535C113.874 30.3535 116.505 27.7261 116.505 23.8795H116.505Z" fill="#244DAD"/>
<path d="M147.501 23.8687C147.501 30.8655 142.81 35.4205 137.417 35.4205C134.962 35.4205 132.024 34.2466 130.621 31.8985V34.8566H125.535V1H130.621V15.8387C132.024 13.4909 134.874 12.3636 137.461 12.3636C142.854 12.3636 147.501 16.8248 147.501 23.8687ZM142.415 23.8217C142.415 20.1588 139.785 17.4354 136.628 17.4354C133.69 17.4354 130.709 19.971 130.709 23.8217C130.709 27.6724 133.515 30.3489 136.628 30.3489C139.785 30.3487 142.415 27.4844 142.415 23.8215V23.8217Z" fill="#244DAD"/>
<path d="M150.66 5.17871C150.66 3.25348 152.195 1.84473 153.992 1.84473C155.833 1.84473 157.28 3.25348 157.28 5.17871C157.28 7.05738 155.833 8.51305 153.992 8.51305C152.195 8.51305 150.66 7.05738 150.66 5.17871ZM151.449 34.8577V12.9275H156.535V34.8577H151.449Z" fill="#244DAD"/>
<path d="M172.981 12.9252V17.2457H168.64V34.8576H163.554V17.2457H159.871V12.9252H163.554V4.84674H168.64V12.9252H172.981Z" fill="#244DAD"/>
<path d="M174.43 28.1022H179.208C179.208 29.6033 180.436 31.011 182.584 31.011C184.601 31.011 185.917 29.9319 185.917 28.524C185.917 27.3043 185.04 26.7414 183.505 26.3662L180.787 25.6156C176.183 24.3018 174.999 21.6748 174.999 18.9067C174.999 15.4822 178.157 12.3857 182.628 12.3857C186.267 12.3857 190.389 14.3563 190.345 19.2351H185.479C185.479 17.734 184.207 16.7957 182.759 16.7957C181.182 16.7957 180.085 17.7808 180.085 19.1413C180.085 20.2671 181.094 20.9243 182.278 21.2054L185.566 22.144C190.169 23.4105 191.002 26.5066 191.002 28.5238C191.002 32.981 186.837 35.4204 182.672 35.4204C178.595 35.4206 174.517 32.7938 174.43 28.1022Z" fill="#244DAD"/>
<path d="M38.0724 19.3711H23.3155C22.8025 19.3711 22.3867 19.7866 22.3867 20.2992V35.046C22.3867 35.5586 22.8025 35.9741 23.3155 35.9741H38.0724C38.5853 35.9741 39.0011 35.5586 39.0011 35.046V20.2992C39.0011 19.7866 38.5853 19.3711 38.0724 19.3711Z" fill="#FFB300"/>
<path d="M38.0724 0H23.3155C22.8025 0 22.3867 0.415533 22.3867 0.92812V15.6749C22.3867 16.1875 22.8025 16.603 23.3155 16.603H38.0724C38.5853 16.603 39.0011 16.1875 39.0011 15.6749V0.92812C39.0011 0.415533 38.5853 0 38.0724 0Z" fill="#7D7E75"/>
<path d="M18.6857 0H3.92876C3.41582 0 3 0.431404 3 0.963569V35.0097C3 35.5418 3.41582 35.9732 3.92876 35.9732H18.6857C19.1986 35.9732 19.6144 35.5418 19.6144 35.0097V0.963569C19.6144 0.431404 19.1986 0 18.6857 0Z" fill="#244DAD"/>
<g filter="url(#filter0_d_714_2999)">
<path d="M28.9928 8.99902H13.0062C12.4505 8.99902 12 9.44918 12 10.0045V25.9802C12 26.5355 12.4505 26.9856 13.0062 26.9856H28.9928C29.5485 26.9856 29.999 26.5355 29.999 25.9802V10.0045C29.999 9.44918 29.5485 8.99902 28.9928 8.99902Z" fill="white"/>
</g>
<defs>
<filter id="filter0_d_714_2999" x="0" y="0.999023" width="41.999" height="41.9866" filterUnits="userSpaceOnUse" color-interpolation-filters="sRGB">
<feFlood flood-opacity="0" result="BackgroundImageFix"/>
<feColorMatrix in="SourceAlpha" type="matrix" values="0 0 0 0 0 0 0 0 0 0 0 0 0 0 0 0 0 0 127 0" result="hardAlpha"/>
<feOffset dy="4"/>
<feGaussianBlur stdDeviation="6"/>
<feColorMatrix type="matrix" values="0 0 0 0 0 0 0 0 0 0 0 0 0 0 0 0 0 0 0.078 0"/>
<feBlend mode="normal" in2="BackgroundImageFix" result="effect1_dropShadow_714_2999"/>
<feBlend mode="normal" in="SourceGraphic" in2="effect1_dropShadow_714_2999" result="shape"/>
</filter>
</defs>
</svg>
