<svg width="48" height="36" viewBox="0 0 48 36" fill="none" xmlns="http://www.w3.org/2000/svg">
<path d="M39.8414 23.6928H35.2683L36.3724 17.73L46.3136 12.7217L42.2916 21.9218L39.8414 23.6928Z" fill="#8C8C8C"/>
<path d="M35.5736 23.693H25.0854L28.1254 16.3776L37.2105 14.6533L35.5736 23.693Z" fill="#DADADA"/>
<path d="M26.3776 23.6925H20.1433L17.9797 14.2852L28.7932 13.4424L26.3776 23.6925Z" fill="#C6C6C6"/>
<path d="M14.4187 19.8725C14.6344 19.862 14.8371 19.7663 14.9822 19.6066C15.1273 19.4468 15.2029 19.236 15.1924 19.0205C15.1819 18.8051 15.0861 18.6026 14.9261 18.4577C14.7662 18.3128 14.5551 18.2373 14.3394 18.2478L2.90163 18.8042C2.83731 18.8081 2.77668 18.8356 2.7313 18.8813C2.68592 18.9269 2.65897 18.9877 2.65559 19.052C2.65395 19.0859 2.65902 19.1198 2.6705 19.1517C2.68199 19.1836 2.69966 19.213 2.72251 19.238C2.74537 19.2631 2.77295 19.2835 2.80369 19.2979C2.83442 19.3123 2.86771 19.3206 2.90163 19.3221L14.3475 19.8725H14.4187ZM13.402 14.8236C13.6177 14.8144 13.8209 14.7201 13.967 14.5613C14.1131 14.4024 14.1899 14.1922 14.1808 13.9767C14.1716 13.7613 14.0771 13.5583 13.9181 13.4124C13.7591 13.2665 13.5486 13.1897 13.3329 13.1989L0.258238 13.7533C0.189749 13.7533 0.124065 13.7805 0.0756358 13.8288C0.0272066 13.8772 0 13.9428 0 14.0112C0 14.0796 0.0272066 14.1452 0.0756358 14.1936C0.124065 14.242 0.189749 14.2692 0.258238 14.2692L13.3308 14.8236C13.3511 14.8252 13.3715 14.8252 13.3918 14.8236H13.402ZM15.3154 24.9234C15.4222 24.9174 15.5268 24.8905 15.6232 24.8441C15.7196 24.7978 15.8059 24.7329 15.8771 24.6532C15.9484 24.5735 16.0033 24.4806 16.0386 24.3797C16.0739 24.2789 16.089 24.1721 16.083 24.0654C16.077 23.9587 16.05 23.8542 16.0036 23.758C15.9572 23.6617 15.8922 23.5755 15.8124 23.5043C15.7327 23.4331 15.6396 23.3783 15.5386 23.343C15.4377 23.3078 15.3307 23.2927 15.2239 23.2987L5.35795 23.8531C5.29435 23.8566 5.23425 23.8833 5.18921 23.9283C5.14417 23.9733 5.11737 24.0333 5.11395 24.0969C5.11061 24.1651 5.13435 24.232 5.18002 24.283C5.22569 24.3339 5.28962 24.3648 5.35795 24.369L15.2239 24.9234H15.3154Z" fill="white"/>
<path d="M42.0018 33.6665C42.0018 34.128 41.8648 34.5792 41.608 34.9629C41.3513 35.3467 40.9864 35.6457 40.5595 35.8224C40.1326 35.999 39.6628 36.0452 39.2096 35.9552C38.7564 35.8651 38.3401 35.6429 38.0134 35.3165C37.6866 34.9902 37.4641 34.5744 37.374 34.1217C37.2838 33.669 37.3301 33.1998 37.5069 32.7734C37.6838 32.347 37.9832 31.9826 38.3674 31.7262C38.7516 31.4698 39.2034 31.3329 39.6654 31.3329C40.2851 31.3329 40.8793 31.5788 41.3175 32.0164C41.7556 32.454 42.0018 33.0476 42.0018 33.6665ZM23.0324 29.9295C22.2267 29.9295 21.454 30.2492 20.8843 30.8182C20.3146 31.3873 19.9945 32.159 19.9945 32.9637C19.9945 33.7685 20.3146 34.5402 20.8843 35.1093C21.454 35.6783 22.2267 35.998 23.0324 35.998C23.4285 36.005 23.822 35.9332 24.19 35.7867C24.558 35.6403 24.8932 35.4222 25.1759 35.145C25.4587 34.8679 25.6834 34.5374 25.8369 34.1726C25.9905 33.8079 26.0698 33.4163 26.0703 33.0206C26.0709 32.2104 25.7529 31.4324 25.1846 30.8542C24.6164 30.276 23.8435 29.9439 23.0324 29.9295V29.9295ZM46.8229 13.9908C45.8708 16.5252 44.7695 19.0011 43.5248 21.4057C43.3032 21.9622 41.8696 25.0492 37.3027 25.0492L24.2707 25.0979C24.4185 25.2333 24.573 25.3593 24.7343 25.4757C26.0682 26.4912 27.7295 27.137 29.4823 27.5066C31.2777 27.868 33.1098 28.0146 34.9399 27.9433C35.8671 27.9149 36.795 27.8472 37.7236 27.7402C38.6406 27.6305 39.5902 27.4802 40.4524 27.2893H40.4849C40.7508 27.2252 41.0312 27.2692 41.2646 27.4117C41.498 27.5541 41.6651 27.7833 41.7293 28.0489C41.7935 28.3144 41.7494 28.5946 41.6068 28.8277C41.4642 29.0608 41.2347 29.2277 40.9688 29.2918C39.9521 29.5538 39.0107 29.7366 38.0204 29.9011C37.0302 30.0656 36.0501 30.1672 35.0537 30.2362C33.035 30.3918 31.0048 30.3059 29.0065 29.9803C26.9873 29.629 24.9397 28.9466 23.1381 27.6915C22.2392 27.0531 21.4355 26.2907 20.7509 25.427C18.6261 22.7867 17.9286 17.7094 17.6826 16.828C17.1991 15.0633 16.5595 13.3452 15.7712 11.6938C15.0189 10.0626 14.0668 8.53112 12.9367 7.13433C11.7436 5.71397 10.3366 4.48753 8.76621 3.49895C8.38553 3.23853 8.11151 2.84985 7.99433 2.4041C7.87715 1.95835 7.92465 1.48535 8.12813 1.07172C8.33161 0.658098 8.67746 0.331524 9.10234 0.151798C9.52722 -0.0279278 10.0027 -0.0487757 10.4417 0.0930729C12.4019 0.675951 15.1551 4.12448 15.7732 4.96732C16.1596 5.48724 16.5195 6.02137 16.8611 6.56566C25.5314 11.115 43.2544 9.72783 44.1246 9.66487C44.4439 9.61816 45.8245 9.476 46.6623 10.4671C47.3292 11.247 47.3821 12.4351 46.8189 13.9908H46.8229ZM45.243 11.6552C45.0397 11.4257 44.5821 11.4744 44.4073 11.4927C43.6712 11.5679 43.4069 11.5821 42.2112 11.645C37.5141 11.8928 26.1109 12.1243 18.3434 9.20791C18.5122 9.55926 18.6789 9.91467 18.8335 10.2721C19.6354 12.1274 20.2709 14.0501 20.7326 16.0176C20.9197 16.8056 21.241 19.5758 22.0401 21.7835C22.2333 22.3135 22.7193 23.1848 23.9332 23.1848H37.2986C40.8468 23.1848 41.7619 20.8066 41.7985 20.7071C41.8127 20.6685 43.7932 16.8848 45.0722 13.351C45.426 12.3741 45.3853 11.8238 45.2389 11.6552H45.243Z" fill="white"/>
</svg>
