<svg width="21" height="20" viewBox="0 0 21 20" fill="none" xmlns="http://www.w3.org/2000/svg">
<path fill-rule="evenodd" clip-rule="evenodd" d="M10.1997 0.00012207C4.67671 0.00012207 0.199707 4.48412 0.199707 10.0171C0.199707 14.4421 3.06471 18.1971 7.03871 19.5211C7.53871 19.6131 7.72071 19.3041 7.72071 19.0381C7.72071 18.8011 7.71271 18.1701 7.70771 17.3351C4.92571 17.9401 4.33871 15.9921 4.33871 15.9921C3.88471 14.8341 3.22871 14.5261 3.22871 14.5261C2.32071 13.9061 3.29771 13.9181 3.29771 13.9181C4.30071 13.9881 4.82871 14.9501 4.82871 14.9501C5.72071 16.4801 7.16971 16.0381 7.73871 15.7821C7.83071 15.1351 8.08871 14.6941 8.37471 14.4441C6.15471 14.1911 3.81971 13.3311 3.81971 9.49312C3.81971 8.40012 4.20971 7.50512 4.84871 6.80512C4.74571 6.55212 4.40271 5.53312 4.94671 4.15512C4.94671 4.15512 5.78671 3.88512 7.69671 5.18112C8.51247 4.95864 9.35415 4.84531 10.1997 4.84412C11.0497 4.84812 11.9047 4.95912 12.7037 5.18112C14.6127 3.88512 15.4507 4.15412 15.4507 4.15412C15.9967 5.53312 15.6527 6.55212 15.5507 6.80512C16.1907 7.50512 16.5787 8.40012 16.5787 9.49312C16.5787 13.3411 14.2397 14.1881 12.0127 14.4361C12.3717 14.7451 12.6907 15.3561 12.6907 16.2911C12.6907 17.6291 12.6787 18.7101 12.6787 19.0381C12.6787 19.3061 12.8587 19.6181 13.3667 19.5201C15.358 18.8522 17.089 17.5754 18.3152 15.8702C19.5413 14.1649 20.2006 12.1174 20.1997 10.0171C20.1997 4.48412 15.7217 0.00012207 10.1997 0.00012207Z" fill="#A3A3A5"/>
</svg>
