<svg width="21" height="20" viewBox="0 0 21 20" fill="none" xmlns="http://www.w3.org/2000/svg">
<path fill-rule="evenodd" clip-rule="evenodd" d="M10.5147 0.00012207C12.9447 0.00012207 13.2987 0.013122 14.3227 0.060122C15.3867 0.109122 16.1137 0.278122 16.7497 0.525122C17.4172 0.775996 18.0219 1.16948 18.5217 1.67812C19.0304 2.1779 19.4238 2.78262 19.6747 3.45012C19.9217 4.08612 20.0907 4.81312 20.1397 5.87712C20.1877 6.94412 20.1997 7.28412 20.1997 10.0001V10.0801C20.1997 12.7231 20.1877 13.0671 20.1397 14.1231C20.0907 15.1871 19.9217 15.9141 19.6747 16.5501C19.4238 17.2176 19.0304 17.8223 18.5217 18.3221C18.0219 18.8308 17.4172 19.2242 16.7497 19.4751C16.1137 19.7221 15.3867 19.8911 14.3227 19.9401C13.2557 19.9881 12.9157 20.0001 10.1997 20.0001H10.1197C7.47671 20.0001 7.13271 19.9881 6.07671 19.9401C5.01271 19.8911 4.28571 19.7221 3.64971 19.4751C2.98221 19.2242 2.37748 18.8308 1.87771 18.3221C1.36906 17.8223 0.975581 17.2176 0.724707 16.5501C0.477707 15.9141 0.308707 15.1871 0.259707 14.1231C0.212707 13.0991 0.199707 12.7441 0.199707 10.3151V9.68512C0.199707 7.25512 0.212707 6.90112 0.259707 5.87712C0.308707 4.81312 0.477707 4.08612 0.724707 3.45012C0.975581 2.78262 1.36906 2.1779 1.87771 1.67812C2.37748 1.16948 2.98221 0.775996 3.64971 0.525122C4.28571 0.278122 5.01271 0.109122 6.07671 0.060122C7.10071 0.013122 7.45571 0.00012207 9.88471 0.00012207H10.5147ZM10.4337 1.80212H9.96571C7.50971 1.80212 7.18171 1.81312 6.15871 1.86012C5.18371 1.90512 4.65471 2.06712 4.30171 2.20412C3.83471 2.38612 3.50171 2.60212 3.15171 2.95212C2.80171 3.30212 2.58571 3.63512 2.40371 4.10212C2.26671 4.45512 2.10371 4.98412 2.05971 5.95912C2.01271 6.98212 2.00171 7.31012 2.00171 9.76612V10.2341C2.00171 12.6901 2.01271 13.0181 2.05971 14.0411C2.10471 15.0161 2.26671 15.5451 2.40371 15.8981C2.58571 16.3641 2.80271 16.6981 3.15171 17.0481C3.50171 17.3981 3.83471 17.6141 4.30171 17.7961C4.65471 17.9331 5.18371 18.0961 6.15871 18.1401C7.21271 18.1881 7.52871 18.1981 10.1997 18.1981H10.2797C12.8767 18.1981 13.1967 18.1881 14.2397 18.1401C15.2157 18.0951 15.7447 17.9331 16.0977 17.7961C16.5637 17.6141 16.8977 17.3981 17.2477 17.0481C17.5977 16.6981 17.8137 16.3651 17.9957 15.8981C18.1327 15.5451 18.2957 15.0161 18.3397 14.0411C18.3877 12.9861 18.3977 12.6711 18.3977 10.0001V9.92012C18.3977 7.32312 18.3877 7.00312 18.3397 5.96012C18.2947 4.98412 18.1327 4.45512 17.9957 4.10212C17.8355 3.66769 17.5799 3.27472 17.2477 2.95212C16.9251 2.61998 16.5321 2.36438 16.0977 2.20412C15.7447 2.06712 15.2157 1.90412 14.2407 1.86012C13.2177 1.81312 12.8897 1.80212 10.4337 1.80212ZM10.1997 4.86512C10.874 4.86512 11.5418 4.99794 12.1648 5.256C12.7878 5.51406 13.3539 5.8923 13.8307 6.36913C14.3075 6.84596 14.6858 7.41204 14.9438 8.03504C15.2019 8.65805 15.3347 9.32578 15.3347 10.0001C15.3347 10.6745 15.2019 11.3422 14.9438 11.9652C14.6858 12.5882 14.3075 13.1543 13.8307 13.6311C13.3539 14.1079 12.7878 14.4862 12.1648 14.7442C11.5418 15.0023 10.874 15.1351 10.1997 15.1351C8.83782 15.1351 7.53171 14.5941 6.56871 13.6311C5.60571 12.6681 5.06471 11.362 5.06471 10.0001C5.06471 8.63824 5.60571 7.33213 6.56871 6.36913C7.53171 5.40613 8.83782 4.86512 10.1997 4.86512ZM10.1997 6.66712C9.31574 6.66712 8.46798 7.01828 7.84292 7.64334C7.21786 8.26839 6.86671 9.11616 6.86671 10.0001C6.86671 10.8841 7.21786 11.7318 7.84292 12.3569C8.46798 12.982 9.31574 13.3331 10.1997 13.3331C11.0837 13.3331 11.9314 12.982 12.5565 12.3569C13.1816 11.7318 13.5327 10.8841 13.5327 10.0001C13.5327 9.11616 13.1816 8.26839 12.5565 7.64334C11.9314 7.01828 11.0837 6.66712 10.1997 6.66712ZM15.5377 3.46212C15.856 3.46212 16.1612 3.58855 16.3862 3.81359C16.6113 4.03864 16.7377 4.34386 16.7377 4.66212C16.7377 4.98038 16.6113 5.28561 16.3862 5.51065C16.1612 5.73569 15.856 5.86212 15.5377 5.86212C15.2194 5.86212 14.9142 5.73569 14.6892 5.51065C14.4641 5.28561 14.3377 4.98038 14.3377 4.66212C14.3377 4.34386 14.4641 4.03864 14.6892 3.81359C14.9142 3.58855 15.2194 3.46212 15.5377 3.46212Z" fill="#A3A3A5"/>
</svg>
