<svg width="21" height="20" viewBox="0 0 21 20" fill="none" xmlns="http://www.w3.org/2000/svg">
<path fill-rule="evenodd" clip-rule="evenodd" d="M10.1997 0.00012207C4.67971 0.00012207 0.199707 4.48012 0.199707 10.0001C0.199707 15.5201 4.67971 20.0001 10.1997 20.0001C15.7097 20.0001 20.1997 15.5201 20.1997 10.0001C20.1997 4.48012 15.7097 0.00012207 10.1997 0.00012207ZM16.8047 4.61012C18.0354 6.10943 18.7164 7.98449 18.7347 9.92412C18.4537 9.87012 15.6337 9.29512 12.7917 9.65312C12.7267 9.51212 12.6717 9.36012 12.6077 9.20812C12.4308 8.79117 12.2427 8.37902 12.0437 7.97212C15.1887 6.69212 16.6207 4.84812 16.8047 4.61012ZM10.1997 1.47512C12.3697 1.47512 14.3537 2.28812 15.8617 3.62312C15.7097 3.83912 14.4187 5.56412 11.3817 6.70312C9.98271 4.13312 8.43171 2.02812 8.19271 1.70312C8.85056 1.54934 9.52412 1.47282 10.1997 1.47512ZM6.56671 2.27812C7.71114 3.86443 8.76838 5.51187 9.73371 7.21312C5.74171 8.27612 2.21671 8.25312 1.83771 8.25312C2.11253 6.96025 2.68231 5.74834 3.50261 4.71191C4.3229 3.67549 5.37153 2.84257 6.56671 2.27812ZM1.65271 10.0101V9.75012C2.02271 9.76012 6.16471 9.81512 10.4277 8.53512C10.6777 9.01212 10.9047 9.50012 11.1217 9.98812C11.0127 10.0211 10.8937 10.0531 10.7857 10.0861C6.38171 11.5061 4.03871 15.3891 3.84371 15.7151C2.43355 14.1496 1.65234 12.1171 1.65271 10.0101ZM10.1997 18.5471C8.30114 18.5504 6.45637 17.9165 4.96071 16.7471C5.11271 16.4321 6.84871 13.0911 11.6637 11.4101C11.6857 11.4001 11.6967 11.4001 11.7177 11.3881C12.53 13.4835 13.1404 15.6517 13.5407 17.8631C12.4855 18.3172 11.3484 18.55 10.1997 18.5471ZM14.9607 17.0821C14.8747 16.5621 14.4187 14.0671 13.3017 10.9981C15.9807 10.5751 18.3237 11.2691 18.6157 11.3671C18.4333 12.5202 18.0145 13.6231 17.3855 14.6066C16.7565 15.5901 15.931 16.4329 14.9607 17.0821Z" fill="#A3A3A5"/>
</svg>
