<svg width="21" height="17" viewBox="0 0 21 17" fill="none" xmlns="http://www.w3.org/2000/svg">
<path d="M6.48971 16.2535C14.0367 16.2535 18.1647 10.0005 18.1647 4.57852C18.1647 4.40052 18.1647 4.22352 18.1527 4.04852C18.9559 3.46705 19.6491 2.74713 20.1997 1.92252C19.4508 2.25452 18.6563 2.47228 17.8427 2.56852C18.6994 2.05558 19.3405 1.24887 19.6467 0.29852C18.8414 0.776407 17.9604 1.11325 17.0417 1.29452C16.4231 0.636286 15.6047 0.200355 14.7133 0.0542251C13.8219 -0.0919044 12.9072 0.0599195 12.1108 0.486189C11.3144 0.912459 10.6808 1.58939 10.308 2.41218C9.93521 3.23497 9.84408 4.1577 10.0487 5.03752C8.41729 4.95576 6.82131 4.53185 5.36435 3.79329C3.9074 3.05473 2.62203 2.01804 1.59171 0.75052C1.06703 1.65372 0.906296 2.72294 1.14224 3.74048C1.37819 4.75803 1.99307 5.6474 2.86171 6.22752C2.20897 6.20862 1.57034 6.03302 0.999707 5.71552V5.76752C1.0001 6.71482 1.3281 7.63282 1.9281 8.36588C2.52811 9.09893 3.36318 9.60191 4.29171 9.78952C3.68752 9.95423 3.0536 9.97818 2.43871 9.85952C2.70087 10.675 3.21138 11.3881 3.89883 11.8991C4.58628 12.4102 5.41628 12.6935 6.27271 12.7095C5.42183 13.3781 4.44749 13.8724 3.40543 14.1641C2.36337 14.4558 1.27403 14.5392 0.199707 14.4095C2.07631 15.6139 4.2599 16.2526 6.48971 16.2495" fill="#A3A3A5"/>
</svg>
